<?xml version="1.0" standalone="no"?>
<!DOCTYPE svg PUBLIC "-//W3C//DTD SVG 20010904//EN"
 "http://www.w3.org/TR/2001/REC-SVG-20010904/DTD/svg10.dtd">
<svg version="1.0" xmlns="http://www.w3.org/2000/svg"
 width="1080.000000pt" height="1080.000000pt" viewBox="0 0 1080.000000 1080.000000"
 preserveAspectRatio="xMidYMid meet">

<g transform="translate(0.000000,1080.000000) scale(0.100000,-0.100000)"
fill="#000000" stroke="none">
<path d="M2730 7124 c0 -28 12 -70 77 -259 24 -71 60 -179 79 -240 20 -60 46
-139 59 -175 13 -36 42 -123 65 -195 23 -71 48 -146 55 -165 25 -71 57 -167
80 -240 13 -41 39 -120 58 -175 19 -55 44 -129 55 -165 11 -36 36 -110 55
-165 19 -55 53 -158 77 -230 23 -71 45 -139 50 -150 4 -11 49 -144 98 -295 50
-151 100 -302 111 -335 70 -201 124 -365 132 -395 4 -19 18 -60 29 -90 11 -30
20 -62 20 -71 0 -9 10 -28 21 -43 l21 -27 324 3 c308 3 324 4 343 23 17 17
193 532 360 1050 23 72 48 146 55 165 8 19 51 150 96 290 45 140 93 284 105
320 13 36 37 110 55 165 17 55 42 129 54 165 13 36 31 92 40 125 9 33 21 69
26 80 5 11 13 36 19 55 5 19 18 62 30 95 12 33 64 191 116 350 53 160 100 299
105 310 28 65 66 212 58 228 -8 16 -32 17 -297 17 -323 0 -323 0 -341 -70 -5
-19 -16 -60 -25 -90 -9 -30 -20 -68 -25 -85 -5 -16 -20 -61 -33 -100 -14 -38
-37 -110 -51 -160 -14 -49 -31 -103 -37 -120 -14 -42 -66 -202 -101 -315 -16
-52 -33 -104 -37 -115 -8 -19 -16 -46 -57 -185 -9 -30 -26 -84 -39 -120 -26
-76 -46 -141 -70 -225 -9 -33 -27 -89 -40 -125 -12 -36 -30 -92 -40 -125 -33
-115 -37 -130 -61 -195 -12 -36 -27 -81 -32 -100 -19 -65 -61 -195 -80 -246
-10 -28 -27 -84 -37 -125 -10 -41 -21 -77 -25 -82 -14 -16 -38 31 -69 133 -18
58 -38 123 -46 145 -15 48 -56 177 -81 260 -10 33 -21 65 -25 70 -4 6 -10 26
-14 45 -3 19 -17 64 -29 100 -39 108 -76 227 -76 240 0 6 -6 26 -14 43 -7 18
-21 57 -30 87 -9 30 -26 84 -37 120 -12 36 -25 79 -29 95 -5 17 -17 55 -28 85
-11 30 -34 102 -52 160 -18 58 -43 134 -56 170 -13 36 -24 71 -24 78 0 12 -41
141 -81 257 -12 33 -25 76 -29 95 -5 19 -31 100 -59 180 -28 79 -51 154 -51
167 0 50 -19 53 -357 53 l-313 0 0 -26z"/>
<path d="M6277 7138 c-40 -11 -51 -27 -68 -98 -10 -45 -51 -175 -83 -265 -13
-38 -44 -131 -67 -205 -23 -74 -45 -139 -49 -145 -4 -5 -11 -26 -15 -45 -4
-19 -11 -41 -15 -50 -5 -8 -17 -46 -28 -85 -11 -38 -36 -115 -55 -170 -19 -55
-42 -127 -52 -160 -10 -33 -24 -73 -31 -90 -12 -29 -40 -118 -84 -260 -12 -38
-29 -90 -39 -115 -10 -25 -27 -72 -36 -105 -10 -33 -31 -98 -47 -145 -16 -47
-41 -121 -55 -165 -14 -44 -38 -118 -55 -165 -29 -84 -47 -138 -95 -295 -14
-44 -31 -93 -38 -110 -7 -16 -20 -55 -29 -85 -39 -133 -50 -167 -61 -195 -7
-16 -24 -64 -37 -105 -14 -41 -44 -134 -68 -206 -24 -72 -41 -138 -37 -147 6
-15 34 -17 297 -17 329 0 318 -2 340 82 6 24 17 59 25 78 7 19 19 53 26 75 6
22 16 51 21 65 11 28 22 61 68 210 18 58 50 157 70 220 21 63 57 176 80 250
23 74 54 173 70 220 15 47 40 126 55 175 15 50 38 122 50 160 42 130 86 270
111 350 13 44 42 134 63 200 21 66 65 201 96 300 32 99 61 183 64 188 13 13
38 -26 56 -88 9 -33 23 -76 30 -95 21 -57 45 -141 45 -159 0 -9 4 -21 8 -26 4
-6 16 -35 25 -65 9 -30 34 -109 56 -175 21 -66 60 -187 86 -270 26 -82 57
-181 70 -220 12 -38 35 -110 50 -160 16 -49 51 -162 80 -250 28 -88 71 -221
94 -295 24 -74 47 -144 51 -155 4 -11 23 -67 40 -125 18 -58 43 -136 55 -175
13 -38 37 -117 55 -175 18 -58 40 -113 49 -123 15 -18 35 -19 328 -15 171 2
315 7 319 11 4 4 3 22 -3 40 -6 17 -25 79 -43 137 -18 58 -39 119 -46 137 -8
17 -14 36 -14 42 0 6 -4 19 -9 29 -5 9 -35 98 -66 197 -31 99 -62 191 -67 205
-12 30 -29 83 -54 165 -10 33 -24 71 -31 85 -7 14 -13 34 -13 46 0 11 -4 24
-9 30 -5 5 -16 36 -26 69 -9 33 -23 76 -30 95 -8 19 -22 60 -31 90 -10 30 -26
80 -37 110 -11 30 -23 69 -27 85 -8 29 -25 80 -41 120 -4 11 -22 65 -40 120
-17 55 -42 129 -55 165 -12 36 -25 80 -29 97 -4 18 -11 35 -16 38 -5 4 -9 15
-9 26 0 10 -4 27 -9 37 -5 9 -17 42 -26 72 -8 30 -22 71 -29 90 -8 19 -76 224
-151 455 -76 231 -141 429 -146 440 -27 66 -38 97 -44 134 -12 71 -10 71 -350
70 -167 -1 -317 -6 -338 -11z"/>
</g>
</svg>
